<?xml version="1.0" encoding="UTF-8"?>
<svg viewBox="0 0 321.34259 321.34253" xmlns="http://www.w3.org/2000/svg">
 <path d="m0 290.95v-30.397h60.794v60.795h-60.794v-30.397zm52.11 0v-21.712h-43.425v43.425h43.425v-21.712zm-34.74 0v-13.027h26.055v26.055h-26.055v-13.027zm52.11 17.37v-13.027h8.6849v-8.685h-8.6849v-34.74h17.37v-8.685h-17.37v-8.685h8.6849v-8.685h8.6849v-8.685h8.6849v-8.685h8.6849v-8.685h-17.37v8.685h-8.6849v8.685h-8.6849v-17.37h-17.37v8.685h8.6849v8.685h-17.37v8.685h17.37v8.685h-26.055v8.685h-8.6849v8.685h-8.685v-8.685h-8.6849v8.685h-8.685v-8.685h8.685v-8.685h-8.685v-8.685h8.685v8.685h8.6849v-17.37h8.685v-8.685h8.6849v8.685h8.6849v-17.37h8.6849v-8.685h-8.6849v-8.685h8.6849v-8.685h-26.055v8.685h8.6849v17.37h-8.6849v-17.37h-17.37v8.685h8.6849v17.37h-8.6849v-17.37h-8.685v-8.685h8.685v-8.685h-8.685v-8.685h8.685v-8.685h-8.685v-26.055h8.685v26.055h8.6849v-8.685h8.685v8.685h8.6849v-17.37h26.055v8.685h26.055v-8.685h17.37v-8.685h-17.37v-8.685h-17.37v8.685h-26.055v-8.685h17.37v-8.685h-17.37v-8.685h26.055v8.685h17.37v-8.685h-8.6849v-8.685h8.6849v8.685h8.6849v-8.685h8.6849v8.685h8.6849v8.685h8.685v8.685h8.685v-26.055h8.6849v-8.685h-8.6849v-8.685h-8.685v-8.685h-17.37v17.37h-26.055v-8.685h-43.425v-8.685h34.74v-17.37h8.6849v-8.685h8.6849v-8.685h-8.6849v-8.685h-8.6849v-8.685h17.37v-8.685h-8.6849v-8.685h8.6849v8.685h17.37v-8.685h8.6849v17.37h34.74v8.685h8.6849v8.685h8.685v8.685h17.37v-17.37h-17.37v-8.685h-8.685v-8.685h8.685v8.685h8.6849v-8.685h8.6849v-8.685h17.37v8.685h8.685v-8.685h8.6849v8.685h-8.6849v8.685h17.37v8.685h8.6849v-26.055h17.37v8.685h-8.6849v17.37h8.6849v43.425h17.37v8.685h8.6849v8.685h-8.6849v17.37h8.6849v-8.685h17.37v-8.685h8.685v-8.685h-8.685v-8.685h8.685v8.685h8.6849v17.37h8.685v43.425h-8.685v8.685h-8.6849v17.37h-8.685v-26.055h-8.6849v-8.685h-8.6849v17.37h8.6849v26.055h17.37v8.685h-8.685v8.685h17.37v-17.37h8.685v17.37h-8.685v34.74h-17.37v-8.685h-17.37v-8.685h-8.6849v8.685h-8.6849v8.685h8.6849v8.685h-8.6849v-8.685h-17.37v8.685h-8.6849v-17.37h-8.6849v-8.685h-8.6849v8.685h-8.6849v8.685h8.6849v8.685h8.6849v8.685h60.794v-8.685h-8.6849v-8.685h8.6849v8.685h17.37v8.685h8.6849v-8.685h8.685v26.055h-8.685v17.37h8.685v8.685h-8.685v8.685h8.685v26.055h-8.685v-8.685h-8.6849v8.685h-8.685v-8.685h8.685v-8.685h8.6849v-8.685h-8.6849v-8.685h-8.685v8.685h-8.6849v8.685h-8.6849v8.685h8.6849v8.685h-8.6849v-8.685h-26.055v8.685h-8.6849v-8.685h8.6849v-8.685h8.6851v-8.685h-17.37v-8.685h-17.37v-8.685h-8.6849v8.685h-8.6849v8.685h26.055v17.37h-8.6849v-8.685h-17.37v8.685h8.6849v8.685h-26.055v-8.685h-8.6849v8.685h-26.055v-17.37h-17.37v8.685h8.6849v8.685h-17.37v-17.37h8.6849v-8.685h-17.37v8.685h-8.685v-8.685h8.685v-17.37h-17.37v17.37h-8.6849v8.685h8.6849v8.685h8.6849v8.685h-8.6849v-8.685h-8.6849v-8.685h-8.6849v-8.685h-8.6849v26.055h-8.6849v-13.027zm112.9 0v-4.3425h8.6849v8.685h8.685v-8.685h8.685v-8.685h-8.685v-8.685h8.685v-8.685h8.6849v-8.685h-43.425v-8.685h8.6849v-8.685h8.6849v8.685h8.685v-8.685h-8.685v-8.685h8.685v-8.685h8.685v8.685h8.6849v8.685h-8.6849v8.685h8.6849v-8.685h8.6849v-8.685h-8.6849v-8.685h-8.6849v-8.685h-8.685v-8.685h-8.685v-8.685h8.685v-8.685h8.685v8.685h8.6849v-8.685h8.6849v-17.37h8.6849v-8.685h-8.6849v8.685h-17.37v8.685h-8.685v-8.685h-8.685v-8.685h26.055v-8.685h26.055v8.685h8.6849v26.055h-8.6849v-8.685h-8.6849v17.37h17.37v8.685h8.6851v-8.685h8.6849v-8.685h8.6849v8.685h8.6849v-8.685h8.6849v-8.685h-8.6849v8.685h-8.6849v-8.685h-8.6849v-17.37h8.6849v-26.055h-8.6849v8.685h-8.6849v-8.685h-17.37v-8.685h8.6849v-8.685h-17.37v8.685h-8.6849v-8.685h-17.37v-8.685h26.055v-26.055h8.6849v8.685h17.37v17.37h8.6849v-17.37h-8.6849v-26.055h-8.6851v-8.685h-34.74v-8.685h8.6849v-17.37h8.6849v17.37h8.6849v-34.74h-8.6849v8.685h-8.6849v-8.685h-17.37v-8.685h-8.685v-8.685h-8.685v8.685h-8.6849v8.685h8.6849v8.685h8.685v8.685h-8.685v8.685h-8.6849v8.685h-8.6849v-8.685h-8.6849v-8.685h-8.685v8.685h-8.6849v-8.685h-8.6849v-8.685h8.6849v-8.685h-8.6849v8.685h-8.6849v-8.685h-8.685v8.685h-8.685v-8.685h-8.6849v-8.685h-8.6849v8.685h8.6849v8.685h-8.6849v8.685h-8.6849v8.685h-8.6849v8.685h8.6849v-8.685h8.6849v17.37h8.6849v-17.37h8.6849v8.685h8.685v8.685h8.685v-8.685h8.6849v8.685h8.6849v8.685h-8.6849v8.685h8.6849v-8.685h8.6849v8.685h8.685v8.685h-26.055v8.685h8.6849v8.685h-8.6849v8.685h-8.6849v8.685h8.6849v8.685h8.6849v8.685h-8.6849v17.37h-8.6849v-8.685h-8.685v-17.37h-17.37v17.37h-17.37v8.685h-8.6849v-8.685h-17.37v-8.685h-17.37v8.685h-8.6849v8.685h17.37v8.685h17.37v-8.685h8.6849v17.37h-26.055v8.685h34.74v-8.685h17.37v-8.685h8.6849v8.685h8.685v8.685h-8.685v8.685h8.685v-8.685h8.685v-17.37h8.6849v26.055h-8.6849v8.685h8.6849v17.37h-17.37v-17.37h-17.37v17.37h-17.37v17.37h8.6849v8.685h-8.6849v8.685h-8.6849v26.055h17.37v-8.685h8.6849v-8.685h-17.37v-8.685h8.6849v-8.685h8.6849v-8.685h8.6849v8.685h8.685v8.685h-8.685v8.685h8.685v-8.685h8.685v8.685h8.6849v8.685h8.6849v8.685h-8.6849v8.685h17.37v8.685h8.685v8.685h17.37v-4.3425zm-17.37-8.6849v-4.3425h-8.685v-26.055h-17.37v-8.685h-8.6849v-26.055h8.6849v-8.685h8.6849v8.685h8.6849v-8.685h8.685v-8.685h-8.685v-8.685h-17.37v-8.685h17.37v-8.685h8.685v-8.685h-8.685v-8.685h-17.37v-8.685h17.37v-8.685h8.685v-8.685h-8.685v-8.685h-8.6849v-8.685h-8.6849v-8.685h8.6849v8.685h8.6849v-8.685h8.685v-8.685h-8.685v-8.685h26.055v-17.37h-17.37v-8.685h-8.685v-8.685h-8.6849v-8.685h-8.6849v-8.685h-8.6849v8.685h-8.685v-8.685h-8.685v-8.685h8.685v-8.685h8.685v8.685h8.6849v8.685h8.6849v8.685h8.6849v-8.685h8.685v8.685h-8.685v8.685h26.055v-8.685h8.6849v-8.685h8.685v-8.685h8.685v-8.685h17.37v8.685h-17.37v8.685h8.6849v8.685h-8.6849v8.685h8.6849v8.685h-8.6849v8.685h-17.37v8.685h8.685v8.685h8.685v-8.685h8.6849v-8.685h8.6849v-8.685h17.37v8.685h8.6849v8.685h-8.6849v-8.685h-17.37v8.685h-8.6849v8.685h8.6849v8.685h-8.6849v-8.685h-8.6849v17.37h-17.37v8.685h17.37v8.685h8.6849v17.37h-8.6849v8.685h-17.37v8.685h-17.37v-8.685h17.37v-8.685h8.685v-8.685h-8.685v-8.685h-8.6849v8.685h-8.6849v8.685h-8.6849v8.685h-8.685v8.685h8.685v8.685h17.37v8.685h-8.6849v8.685h-17.37v8.685h26.055v-8.685h8.6849v-8.685h8.685v8.685h-8.685v8.685h-8.6849v8.685h-8.6849v8.685h8.6849v8.685h8.6849v-8.685h8.685v8.685h-8.685v8.685h-8.6849v8.685h-8.6849v8.685h-17.37v8.685h17.37v8.685h8.6849v8.685h-8.6849v8.685h8.6849v8.685h-17.37v-4.3425zm-8.685-47.767v-8.6849h8.685v-8.685h8.6849v8.685h8.6849v-8.685h-8.6849v-8.685h-8.6849v8.685h-8.685v8.685h-8.6849v-8.685h-8.6849v8.685h8.6849v8.685h-8.6849v8.685h17.37v-8.6849zm26.055-121.59v-8.6849h8.6849v-17.37h-8.6849v17.37h-17.37v8.685h-8.685v8.685h26.055v-8.685zm8.6849-52.11v-8.6849h8.685v-8.685h8.685v-8.685h-8.685v8.685h-8.685v8.685h-8.6849v17.37h8.6849v-8.6849zm-60.794-30.397v-4.3425h-8.685v8.685h8.685v-4.3425zm60.794 251.86v-4.3425h8.685v8.685h-8.685v-4.3425zm0-17.37v-4.3425h8.685v8.685h-8.685v-4.3425zm-95.534-43.425v-4.3425h8.6849v8.685h-8.6849v-4.3425zm17.37-8.6849v-4.3425h8.685v8.685h-8.685v-4.3425zm95.534-34.74v-4.3425h8.6849v8.685h-8.6849v-4.3425zm52.11 0v-4.3425h8.6849v8.685h-8.6849v-4.3425zm-165.01-26.055v-4.3425h8.6849v8.685h-8.6849v-4.3425zm156.33 0v-4.3425h-8.6849v-8.685h-17.37v-8.685h17.37v8.685h8.6849v8.685h8.6851v8.685h-8.6851v-4.3425zm-199.75-8.6849v-4.3425h8.6849v8.685h-8.6849v-4.3425zm60.794 0v-4.3425h8.685v8.685h-8.685v-4.3425zm78.164-138.96v-4.3425h8.685v8.685h-8.685v-4.3425zm86.849 277.92v-4.3425h8.6849v-8.685h-17.37v17.37h8.6849v-4.3425zm-34.74-34.74v-13.027h-8.6849v8.685h-8.6849v8.685h8.6849v8.685h8.6849v-13.027zm34.74 0v-13.027h-26.055v26.055h26.055v-13.027zm-17.37 0v-4.3425h8.6849v8.685h-8.6849v-4.3425zm43.425 4.3425v-8.6849h-8.685v-8.685h8.685v-8.685h-8.685v8.685h-8.6849v26.055h17.37v-8.6849zm-277.92-30.397v-4.3425h-8.685v8.685h8.685v-4.3425zm277.92-26.055v-4.3425h-8.685v8.685h8.685v-4.3425zm-277.92-47.767v-8.6849h-8.685v17.37h8.685v-8.6849zm277.92-30.397v-4.3425h8.6849v-34.74h-8.6849v34.74h-8.685v-8.685h-8.6849v8.685h8.6849v8.685h8.685v-4.3425zm-182.38-8.6849v-4.3425h-8.685v8.685h8.685v-4.3425zm-26.055-8.6849v-4.3425h8.6849v-8.685h-8.6849v8.685h-8.6849v8.685h8.6849v-4.3425zm156.33 0v-4.3425h-8.6849v8.685h8.6849v-4.3425zm43.425-8.6849v-4.3425h-8.6849v8.685h8.6849v-4.3425zm-208.44-34.74v-4.3425h-8.6849v8.685h8.6849v-4.3425zm-43.425 173.7v-4.3425h17.37v8.685h-17.37v-4.3425zm-26.055-130.27v-4.3425h-8.6849v-8.685h8.6849v8.685h17.37v8.685h-17.37v-4.3425zm-17.37-26.055v-4.3425h8.685v-8.685h-8.685v-8.685h26.055v17.37h17.37v8.685h-17.37v-8.685h-17.37v8.685h-8.685v-4.3425zm52.11 0v-4.3425h17.37v8.685h-17.37v-4.3425zm60.794 0v-4.3425h8.685v8.685h-8.685v-4.3425zm-112.9-60.794v-30.397h60.794v60.795h-60.794v-30.397zm52.11 0v-21.712h-43.425v43.425h43.425v-21.712zm-34.74 0v-13.027h26.055v26.055h-26.055v-13.027zm243.18 0v-30.397h60.794v60.795h-60.794v-30.397zm52.11 0v-21.712h-43.425v43.425h43.425v-21.712zm-34.74 0v-13.027h26.055v26.055h-26.055v-13.027zm-156.33-26.055v-4.3425h8.685v8.685h-8.685v-4.3425zm17.37 0v-4.3425h8.6849v8.685h-8.6849v-4.3425z"/>
</svg>
